<svg xmlns="http://www.w3.org/2000/svg" xmlns:xlink="http://www.w3.org/1999/xlink" style="margin:auto;background:#f1f2f3;display:block;z-index:1;position:relative" width="2428" height="1291" preserveAspectRatio="xMidYMid" viewBox="0 0 2428 1291">
<g transform="translate(1214,645.5) scale(1,1) translate(-1214,-645.5)"><linearGradient id="lg-0.07313992602215502" x1="0" x2="1" y1="0" y2="0">
  <stop stop-color="#46261f" offset="0"></stop>
  <stop stop-color="#774023" offset="1"></stop>
</linearGradient><path d="M 1771 646 C 1771 816 1510 1010 1349 1062 C 1188 1114 880 1098 780 961 C 680 824 657 451 757 314 C 857 177 1170 233 1331 285 C 1492 337 1771 476 1771 646" fill="url(#lg-0.07313992602215502)" opacity="0.35">
  <animate attributeName="d" dur="9.090909090909092s" repeatCount="indefinite" keyTimes="0;0.3333333333333333;0.6666666666666666;1" calcmod="spline" keySplines="0.3 0.1 0.7 0.9;0.3 0.1 0.7 0.9;0.3 0.1 0.7 0.9" begin="-3.0303030303030307s" values="M 1771 646 C 1771 816 1510 1010 1349 1062 C 1188 1114 880 1098 780 961 C 680 824 657 451 757 314 C 857 177 1170 233 1331 285 C 1492 337 1771 476 1771 646;M 1830 646 C 1830 810 1494 978 1338 1028 C 1182 1078 888 1084 792 952 C 696 820 631 423 727 291 C 823 159 1209 130 1365 181 C 1521 232 1830 482 1830 646;M 1902 646 C 1902 825 1541 1075 1371 1130 C 1201 1185 796 1170 691 1025 C 586 880 636 447 741 302 C 846 157 1177 182 1347 237 C 1517 292 1902 467 1902 646;M 1771 646 C 1771 816 1510 1010 1349 1062 C 1188 1114 880 1098 780 961 C 680 824 657 451 757 314 C 857 177 1170 233 1331 285 C 1492 337 1771 476 1771 646"></animate>
</path><path d="M 1768 646 C 1768 801 1492 998 1344 1046 C 1196 1094 919 1051 828 926 C 737 801 752 501 843 376 C 934 251 1170 276 1318 324 C 1466 372 1768 491 1768 646" fill="url(#lg-0.07313992602215502)" opacity="0.35">
  <animate attributeName="d" dur="9.090909090909092s" repeatCount="indefinite" keyTimes="0;0.3333333333333333;0.6666666666666666;1" calcmod="spline" keySplines="0.3 0.1 0.7 0.9;0.3 0.1 0.7 0.9;0.3 0.1 0.7 0.9" begin="-3.0303030303030307s" values="M 1768 646 C 1768 801 1492 998 1344 1046 C 1196 1094 919 1051 828 926 C 737 801 752 501 843 376 C 934 251 1170 276 1318 324 C 1466 372 1768 491 1768 646;M 1791 646 C 1791 804 1501 1017 1351 1066 C 1201 1115 861 1097 768 969 C 675 841 711 476 804 348 C 897 220 1175 256 1325 305 C 1475 354 1791 488 1791 646;M 1785 646 C 1785 829 1526 1012 1352 1069 C 1178 1126 826 1154 718 1006 C 610 858 665 473 773 325 C 881 177 1181 155 1355 211 C 1529 267 1785 463 1785 646;M 1768 646 C 1768 801 1492 998 1344 1046 C 1196 1094 919 1051 828 926 C 737 801 752 501 843 376 C 934 251 1170 276 1318 324 C 1466 372 1768 491 1768 646"></animate>
</path><path d="M 1863 646 C 1863 823 1538 1073 1370 1127 C 1202 1181 787 1174 683 1031 C 579 888 691 484 795 341 C 899 198 1174 197 1342 252 C 1510 307 1863 469 1863 646" fill="url(#lg-0.07313992602215502)" opacity="0.35">
  <animate attributeName="d" dur="9.090909090909092s" repeatCount="indefinite" keyTimes="0;0.3333333333333333;0.6666666666666666;1" calcmod="spline" keySplines="0.3 0.1 0.7 0.9;0.3 0.1 0.7 0.9;0.3 0.1 0.7 0.9" begin="-3.0303030303030307s" values="M 1863 646 C 1863 823 1538 1073 1370 1127 C 1202 1181 787 1174 683 1031 C 579 888 691 484 795 341 C 899 198 1174 197 1342 252 C 1510 307 1863 469 1863 646;M 1755 646 C 1755 806 1506 1027 1354 1076 C 1202 1125 867 1095 773 966 C 679 837 677 452 771 323 C 865 194 1178 240 1330 289 C 1482 338 1755 486 1755 646;M 1813 646 C 1813 806 1497 1000 1345 1049 C 1193 1098 867 1096 773 966 C 679 836 691 464 785 334 C 879 204 1205 156 1357 205 C 1509 254 1813 486 1813 646;M 1863 646 C 1863 823 1538 1073 1370 1127 C 1202 1181 787 1174 683 1031 C 579 888 691 484 795 341 C 899 198 1174 197 1342 252 C 1510 307 1863 469 1863 646"></animate>
</path><path d="M 1847 646 C 1847 808 1495 987 1341 1037 C 1187 1087 929 1053 834 922 C 739 791 729 493 824 362 C 919 231 1198 170 1352 220 C 1506 270 1847 484 1847 646" fill="url(#lg-0.07313992602215502)" opacity="0.35">
  <animate attributeName="d" dur="9.090909090909092s" repeatCount="indefinite" keyTimes="0;0.3333333333333333;0.6666666666666666;1" calcmod="spline" keySplines="0.3 0.1 0.7 0.9;0.3 0.1 0.7 0.9;0.3 0.1 0.7 0.9" begin="-3.0303030303030307s" values="M 1847 646 C 1847 808 1495 987 1341 1037 C 1187 1087 929 1053 834 922 C 739 791 729 493 824 362 C 919 231 1198 170 1352 220 C 1506 270 1847 484 1847 646;M 1809 646 C 1809 830 1535 1039 1360 1096 C 1185 1153 845 1141 737 992 C 629 843 664 473 772 324 C 880 175 1200 93 1375 150 C 1550 207 1809 462 1809 646;M 1805 646 C 1805 800 1486 982 1339 1030 C 1192 1078 912 1056 821 931 C 730 806 740 492 831 367 C 922 242 1172 276 1319 324 C 1466 372 1805 492 1805 646;M 1847 646 C 1847 808 1495 987 1341 1037 C 1187 1087 929 1053 834 922 C 739 791 729 493 824 362 C 919 231 1198 170 1352 220 C 1506 270 1847 484 1847 646"></animate>
</path><path d="M 1859 646 C 1859 819 1511 997 1346 1051 C 1181 1105 907 1083 805 943 C 703 803 596 410 698 270 C 800 130 1167 229 1332 283 C 1497 337 1859 473 1859 646" fill="url(#lg-0.07313992602215502)" opacity="0.35">
  <animate attributeName="d" dur="9.090909090909092s" repeatCount="indefinite" keyTimes="0;0.3333333333333333;0.6666666666666666;1" calcmod="spline" keySplines="0.3 0.1 0.7 0.9;0.3 0.1 0.7 0.9;0.3 0.1 0.7 0.9" begin="-3.0303030303030307s" values="M 1859 646 C 1859 819 1511 997 1346 1051 C 1181 1105 907 1083 805 943 C 703 803 596 410 698 270 C 800 130 1167 229 1332 283 C 1497 337 1859 473 1859 646;M 1750 646 C 1750 815 1508 1004 1347 1056 C 1186 1108 835 1130 736 993 C 637 856 723 498 822 361 C 921 224 1191 168 1352 220 C 1513 272 1750 477 1750 646;M 1847 646 C 1847 810 1506 1013 1350 1064 C 1194 1115 860 1106 763 973 C 666 840 725 493 822 360 C 919 227 1175 233 1331 284 C 1487 335 1847 482 1847 646;M 1859 646 C 1859 819 1511 997 1346 1051 C 1181 1105 907 1083 805 943 C 703 803 596 410 698 270 C 800 130 1167 229 1332 283 C 1497 337 1859 473 1859 646"></animate>
</path><path d="M 1802 646 C 1802 828 1524 1012 1351 1068 C 1178 1124 878 1114 771 967 C 664 820 650 460 757 313 C 864 166 1205 85 1378 141 C 1551 197 1802 464 1802 646" fill="url(#lg-0.07313992602215502)" opacity="0.35">
  <animate attributeName="d" dur="9.090909090909092s" repeatCount="indefinite" keyTimes="0;0.3333333333333333;0.6666666666666666;1" calcmod="spline" keySplines="0.3 0.1 0.7 0.9;0.3 0.1 0.7 0.9;0.3 0.1 0.7 0.9" begin="-3.0303030303030307s" values="M 1802 646 C 1802 828 1524 1012 1351 1068 C 1178 1124 878 1114 771 967 C 664 820 650 460 757 313 C 864 166 1205 85 1378 141 C 1551 197 1802 464 1802 646;M 1759 646 C 1759 812 1492 964 1334 1015 C 1176 1066 911 1070 814 936 C 717 802 655 444 752 310 C 849 176 1175 228 1333 279 C 1491 330 1759 480 1759 646;M 1839 646 C 1839 810 1493 972 1337 1023 C 1181 1074 872 1096 776 964 C 680 832 679 459 775 327 C 871 195 1190 189 1346 240 C 1502 291 1839 482 1839 646;M 1802 646 C 1802 828 1524 1012 1351 1068 C 1178 1124 878 1114 771 967 C 664 820 650 460 757 313 C 864 166 1205 85 1378 141 C 1551 197 1802 464 1802 646"></animate>
</path></g>
</svg>