<svg width="24" height="24" viewBox="0 0 24 24" fill="none" xmlns="http://www.w3.org/2000/svg">
<path d="M18.1245 9.5664C17.9066 7.85864 17.0679 6.50324 15.763 5.74984C14.4581 4.99644 12.865 4.94798 11.2771 5.61323C9.75788 6.24971 8.41646 7.47455 7.49995 9.06217C6.58339 10.6497 6.19341 12.4239 6.40182 14.0578C6.61973 15.7656 7.45835 17.121 8.76326 17.8743C10.0682 18.6277 11.6613 18.6762 13.2492 18.0109C14.7684 17.3744 16.1098 16.1495 17.0263 14.562C17.9428 12.9744 18.3329 11.2003 18.1245 9.5664ZM9.7589 14.7383C9.42155 14.9734 9.05429 15.2294 8.66801 15.6821C8.29893 15.1835 8.0564 14.5515 7.96353 13.8235C7.79957 12.5384 8.11643 11.1254 8.85576 9.84484C9.59509 8.56428 10.6602 7.58336 11.8552 7.08273C12.8416 6.66946 13.8106 6.63284 14.6256 6.97064C14.3897 7.23218 14.1576 7.39457 13.8917 7.57978C13.383 7.93419 12.8064 8.33584 12.1987 9.38838C11.591 10.441 11.5315 11.1412 11.4789 11.7591C11.4335 12.2934 11.3975 12.7155 10.972 13.4525C10.5464 14.1896 10.199 14.4318 9.7589 14.7383ZM12.6711 16.5414C11.6847 16.9547 10.7157 16.9913 9.90063 16.6535C10.1367 16.3918 10.3688 16.2293 10.6347 16.0441C11.1435 15.6896 11.7201 15.2879 12.3278 14.2352C12.9355 13.1826 12.9951 12.4824 13.0477 11.8645C13.0931 11.3302 13.129 10.9081 13.5546 10.1711C13.98 9.43418 14.3276 9.19209 14.7675 8.88557C15.1048 8.65057 15.472 8.39458 15.8583 7.94205C16.2274 8.44055 16.4699 9.07258 16.5628 9.80058C16.7267 11.0857 16.4098 12.4987 15.6706 13.7793C14.9312 15.0598 13.8661 16.0408 12.6711 16.5414Z" fill="url(#paint0_linear_588_1101)"/>
<defs>
<linearGradient id="paint0_linear_588_1101" x1="24.6927" y1="24.1048" x2="20.0984" y2="-3.89068" gradientUnits="userSpaceOnUse">
<stop stop-color="#AF7E51"/>
<stop offset="1" stop-color="#3E2525"/>
</linearGradient>
</defs>
</svg>
