<svg width="32" height="32" viewBox="0 0 32 32" fill="none"
  xmlns="http://www.w3.org/2000/svg">
  <path d="M21.5077 4.24746C17.8678 3.63724 14.132 3.63724 10.4921 4.24746C9.16229 4.4704 8.10327 5.49129 7.83664 6.81499C6.61515 12.8791 6.5485 19.1192 7.64019 25.208L8.08466 27.687C8.22171 28.4514 9.15358 28.7569 9.7166 28.2221L15.0816 23.1254C15.5962 22.6365 16.4036 22.6365 16.9182 23.1254L22.2832 28.2221C22.8462 28.7569 23.7781 28.4514 23.9151 27.687L24.3596 25.208C25.4513 19.1192 25.3846 12.8791 24.1631 6.81499C23.8965 5.49129 22.8375 4.4704 21.5077 4.24746Z" fill="url(#paint0_linear_923_1207)"/>
  <defs>
    <linearGradient id="paint0_linear_923_1207" x1="44.0769" y1="23.9586" x2="12.0346" y2="-12.8545" gradientUnits="userSpaceOnUse">
      <stop stop-color="#AF7E51"/>
      <stop offset="1" stop-color="#3E2525"/>
    </linearGradient>
  </defs>
</svg>
