<svg width="24" height="24" viewBox="0 0 24 24" fill="none"
  xmlns="http://www.w3.org/2000/svg">
  <path fill-rule="evenodd" clip-rule="evenodd" d="M15.9242 4.41833C13.3311 3.9836 10.669 3.9836 8.07586 4.41833C7.58786 4.50014 7.20027 4.87507 7.10299 5.35801C6.21791 9.75199 6.16962 14.2735 6.96064 18.6854L7.12419 19.5976L10.7947 16.1106C11.4702 15.4689 12.5299 15.4689 13.2053 16.1106L16.8759 19.5976L17.0394 18.6854C17.8304 14.2735 17.7822 9.75199 16.8971 5.35801C16.7998 4.87507 16.4122 4.50014 15.9242 4.41833ZM7.82785 2.93898C10.5852 2.47672 13.4149 2.47672 16.1722 2.93898C17.2714 3.12326 18.147 3.96707 18.3675 5.06181C19.2899 9.64072 19.3402 14.3525 18.5159 18.9501L18.2944 20.1854C18.1085 21.2223 16.8445 21.6367 16.0808 20.9112L12.1722 17.1981C12.0757 17.1064 11.9243 17.1064 11.8278 17.1981L7.91931 20.9112C7.15561 21.6367 5.89157 21.2223 5.70567 20.1854L5.48419 18.9501C4.65987 14.3525 4.71019 9.64073 5.63252 5.06181C5.85304 3.96707 6.72863 3.12326 7.82785 2.93898Z" fill="#dbdbdb"/>
</svg>
