<svg fill="none" height="24" viewBox="0 0 24 24" width="24" xmlns="http://www.w3.org/2000/svg"><path d="m16.1309 3.18554c-2.73-.45767-5.5318-.45767-8.26172 0-.99734.1672-1.79161.93287-1.99158 1.92564-.91612 4.54809-.96611 9.22812-.14734 13.79482l.33336 1.8592c.10278.5733.80169.8024 1.22395.4013l4.02373-3.8225c.3859-.3667.9915-.3667 1.3775 0l4.0237 3.8225c.4223.4011 1.1212.172 1.224-.4013l.3333-1.8592c.8188-4.5666.7688-9.24673-.1473-13.79482-.2-.99277-.9943-1.75844-1.9916-1.92564z" fill="#111"/></svg>