<svg width="24" height="24" viewBox="0 0 24 24" fill="none" xmlns="http://www.w3.org/2000/svg">
<path fill-rule="evenodd" clip-rule="evenodd" d="M8.25003 13C8.25003 10.9289 9.92897 9.25 12 9.25C14.0711 9.25 15.75 10.9289 15.75 13C15.75 15.0711 14.0711 16.75 12 16.75C9.92897 16.75 8.25003 15.0711 8.25003 13ZM12 10.75C10.7574 10.75 9.75003 11.7574 9.75003 13C9.75003 14.2426 10.7574 15.25 12 15.25C13.2427 15.25 14.25 14.2426 14.25 13C14.25 11.7574 13.2427 10.75 12 10.75Z" fill="#111111"/>
<path fill-rule="evenodd" clip-rule="evenodd" d="M10.6162 5.75C9.571 5.75 8.72372 6.59728 8.72372 7.64245C8.72372 8.30841 8.2125 8.86283 7.54872 8.91674L5.31912 9.09782C4.88135 9.13337 4.52132 9.45709 4.43961 9.88864C3.99087 12.2586 3.95741 14.6886 4.34072 17.0701L4.43797 17.6743C4.52982 18.2449 4.99945 18.679 5.57551 18.7258L7.51783 18.8835C10.5011 19.1258 13.499 19.1258 16.4822 18.8835L18.4246 18.7258C19.0006 18.679 19.4703 18.2449 19.5621 17.6743L19.6593 17.0701C20.0427 14.6886 20.0092 12.2586 19.5605 9.88864C19.4787 9.45709 19.1187 9.13337 18.681 9.09782L16.4514 8.91674C15.7876 8.86284 15.2764 8.30841 15.2764 7.64245C15.2764 6.59728 14.4291 5.75 13.3839 5.75H10.6162ZM7.2298 7.4377C7.33565 5.65944 8.81132 4.25 10.6162 4.25H13.3839C15.1888 4.25 16.6644 5.65944 16.7703 7.4377L18.8024 7.60274C19.9133 7.69296 20.8269 8.51446 21.0343 9.60958C21.5153 12.1503 21.5512 14.7554 21.1403 17.3084L21.043 17.9126C20.8414 19.1652 19.8105 20.1182 18.546 20.2209L16.6037 20.3786C13.5396 20.6274 10.4605 20.6274 7.39641 20.3786L5.45409 20.2209C4.18956 20.1182 3.15865 19.1652 2.95703 17.9126L2.85978 17.3084C2.44885 14.7554 2.48472 12.1503 2.9658 9.60958C3.17315 8.51446 4.08678 7.69296 5.1977 7.60274L7.2298 7.4377Z" fill="#111111"/>
</svg>
