<svg width="24" height="24" viewBox="0 0 24 24" fill="none" xmlns="http://www.w3.org/2000/svg">
<path d="M15.3152 5H8.46739C7.65827 5 7 5.65827 7 6.46739V14.2933C7 14.2934 7 14.2936 7 14.2936V18.5326C7 19.3417 7.65827 20 8.46739 20H15.3152C16.1244 20 16.7826 19.3417 16.7826 18.5326V6.46739C16.7826 5.65827 16.1243 5 15.3152 5ZM10.9131 5.97825H12.8696V7.93479H10.9131V5.97825ZM10.9131 8.91304H12.8696V10.8696H10.9131V8.91304ZM10.9131 11.8478H12.8696V13.8044H10.9131V11.8478ZM12.1778 14.7826L10.7698 16.1907C10.579 16.3814 10.2688 16.3814 10.078 16.1907L8.67001 14.7826H12.1778ZM7.97828 6.46739C7.97828 6.19769 8.19771 5.97825 8.46742 5.97825H9.93481V7.93479H7.97828V6.46739ZM7.97828 8.91304H9.93481V10.8696H7.97828V8.91304ZM7.97828 11.8478H9.93481V13.8044H7.97828V11.8478ZM15.8044 18.5326C15.8044 18.8023 15.5849 19.0217 15.3152 19.0217H8.46739C8.19769 19.0217 7.97825 18.8023 7.97825 18.5326V15.4743L9.38632 16.8824C9.67237 17.1685 10.0481 17.3115 10.4239 17.3115C10.7997 17.3115 11.1754 17.1685 11.4615 16.8824L13.5613 14.7826H15.8043V18.5326H15.8044ZM15.8044 13.8044H13.8478V11.8478H15.8044V13.8044ZM15.8044 10.8696H13.8478V8.91304H15.8044V10.8696ZM15.8044 7.93479H13.8478V5.97825H15.3152C15.5849 5.97825 15.8044 6.19769 15.8044 6.46739V7.93479Z" fill="#111111"/>
</svg>
