<svg width="24" height="24" viewBox="0 0 24 24" fill="none" xmlns="http://www.w3.org/2000/svg">
<path d="M12.4865 14.0401C13.3149 14.0401 13.9865 13.373 13.9865 12.5501C13.9865 11.7272 13.3149 11.0601 12.4865 11.0601C11.658 11.0601 10.9865 11.7272 10.9865 12.5501C10.9865 13.373 11.658 14.0401 12.4865 14.0401Z" stroke="#111111" stroke-width="1.2" stroke-linecap="round" stroke-linejoin="round"/>
<path d="M18.8565 10.63C18.6438 9.98322 18.1832 9.44726 17.5757 9.13979C16.9683 8.83231 16.2636 8.77844 15.6165 8.99C15.3855 9.05546 15.1662 9.15669 14.9665 9.29C15.0311 9.05881 15.0648 8.82005 15.0665 8.58C15.0665 7.89574 14.7947 7.23951 14.3108 6.75566C13.827 6.27182 13.1708 6 12.4865 6C11.8022 6 11.146 6.27182 10.6622 6.75566C10.1783 7.23951 9.90649 7.89574 9.90649 8.58C9.90823 8.82005 9.94186 9.05881 10.0065 9.29C9.80745 9.15318 9.58809 9.04856 9.35649 8.98C9.03672 8.8756 8.69952 8.8352 8.36414 8.86112C8.02876 8.88704 7.70177 8.97876 7.40184 9.13105C7.10191 9.28333 6.8349 9.49321 6.61608 9.74868C6.39726 10.0042 6.23089 10.3002 6.12649 10.62C6.02209 10.9398 5.9817 11.277 6.00761 11.6123C6.03353 11.9477 6.12525 12.2747 6.27754 12.5747C6.42983 12.8746 6.6397 13.1416 6.89518 13.3604C7.15065 13.5792 7.44673 13.7456 7.76649 13.85C8.00071 13.9192 8.2425 13.9595 8.48649 13.97C8.30011 14.1195 8.13226 14.2907 7.98649 14.48C7.7874 14.7511 7.64411 15.0589 7.56495 15.3858C7.48579 15.7127 7.47234 16.052 7.52536 16.3841C7.57839 16.7162 7.69684 17.0345 7.87385 17.3205C8.05086 17.6065 8.28289 17.8544 8.55649 18.05C9.10938 18.4495 9.79757 18.6148 10.4716 18.51C11.1456 18.4051 11.7511 18.0386 12.1565 17.49C12.2972 17.2939 12.4083 17.0783 12.4865 16.85C12.5677 17.0789 12.6823 17.2945 12.8265 17.49C13.2319 18.0386 13.8373 18.4051 14.5114 18.51C15.1854 18.6148 15.8736 18.4495 16.4265 18.05C16.7001 17.8544 16.9321 17.6065 17.1091 17.3205C17.2861 17.0345 17.4046 16.7162 17.4576 16.3841C17.5107 16.052 17.4972 15.7127 17.418 15.3858C17.3389 15.0589 17.1956 14.7511 16.9965 14.48C16.8507 14.2907 16.6829 14.1195 16.4965 13.97C16.7371 13.9587 16.9755 13.9184 17.2065 13.85C17.5269 13.7479 17.8239 13.5834 18.0805 13.366C18.3371 13.1486 18.5481 12.8826 18.7015 12.5833C18.8549 12.284 18.9475 11.9574 18.9741 11.6221C19.0007 11.2869 18.9607 10.9497 18.8565 10.63V10.63Z" stroke="#111111" stroke-width="1.2" stroke-linecap="round" stroke-linejoin="round"/>
</svg>
