<svg width="24" height="24" viewBox="0 0 24 24" fill="none" xmlns="http://www.w3.org/2000/svg">
<path d="M8.6 19C10.0359 19 11.2 17.836 11.2 16.4C11.2 14.9641 10.0359 13.8 8.6 13.8C7.16406 13.8 6 14.9641 6 16.4C6 17.836 7.16406 19 8.6 19Z" stroke="#111111" stroke-width="1.2" stroke-linecap="round" stroke-linejoin="round"/>
<path d="M15.88 17.96C17.316 17.96 18.48 16.7959 18.48 15.36C18.48 13.9241 17.316 12.76 15.88 12.76C14.4441 12.76 13.28 13.9241 13.28 15.36C13.28 16.7959 14.4441 17.96 15.88 17.96Z" stroke="#111111" stroke-width="1.2" stroke-linecap="round" stroke-linejoin="round"/>
<path d="M14.65 13.07C12.63 11.2518 11.4053 8.71271 11.24 6C9.59982 8.27485 8.69276 10.996 8.64001 13.8" stroke="#111111" stroke-width="1.2" stroke-linecap="round" stroke-linejoin="round"/>
<path d="M8.59998 6H13.8" stroke="#111111" stroke-width="1.2" stroke-linecap="round" stroke-linejoin="round"/>
</svg>
