<svg width="24" height="24" viewBox="0 0 24 24" fill="none" xmlns="http://www.w3.org/2000/svg">
<path d="M10.8125 15.8375C10.5156 16.1344 10.0344 16.1344 9.7375 15.8375C9.44065 15.5406 9.44065 15.0594 9.7375 14.7625L11.75 12.75H3.75C3.33579 12.75 3 12.4142 3 12C3 11.5858 3.33579 11.25 3.75 11.25H11.7L9.6875 9.2375C9.39065 8.94065 9.39065 8.45935 9.6875 8.1625C9.98435 7.86565 10.4656 7.86565 10.7625 8.1625L13.7651 11.1651C14.24 11.64 14.24 12.41 13.7651 12.8849L10.8125 15.8375ZM12.975 21C12.5608 21 12.225 20.6642 12.225 20.25C12.225 19.8358 12.5608 19.5 12.975 19.5H19.3149C19.4171 19.5 19.5 19.4171 19.5 19.3149V4.80567C19.5 4.63685 19.3631 4.5 19.1943 4.5H12.975C12.5608 4.5 12.225 4.16421 12.225 3.75C12.225 3.33579 12.5608 3 12.975 3H19.5C19.9 3 20.25 3.15 20.55 3.45C20.85 3.75 21 4.1 21 4.5V19.5C21 19.9 20.85 20.25 20.55 20.55C20.25 20.85 19.9 21 19.5 21H12.975Z" fill="#111111"/>
</svg>
