<svg width="24" height="24" viewBox="0 0 24 24" fill="none" xmlns="http://www.w3.org/2000/svg">
<path d="M11.025 3C11.4392 3 11.775 3.33579 11.775 3.75C11.775 4.16421 11.4392 4.5 11.025 4.5H4.92794C4.6916 4.5 4.5 4.6916 4.5 4.92794V19.0509C4.5 19.2989 4.70106 19.5 4.94907 19.5H11.025C11.4392 19.5 11.775 19.8358 11.775 20.25C11.775 20.6642 11.4392 21 11.025 21H4.5C4.1 21 3.75 20.85 3.45 20.55C3.15 20.25 3 19.9 3 19.5V4.5C3 4.1 3.15 3.75 3.45 3.45C3.75 3.15 4.1 3 4.5 3H11.025Z" fill="#111111"/>
<path d="M18.125 12.75L16.1125 14.7625C15.8156 15.0594 15.8156 15.5406 16.1125 15.8375C16.4094 16.1344 16.8906 16.1344 17.1875 15.8375L20.1401 12.8849C20.615 12.41 20.615 11.64 20.1401 11.1651L17.1375 8.1625C16.8406 7.86565 16.3594 7.86565 16.0625 8.1625C15.7656 8.45935 15.7656 8.94065 16.0625 9.2375L18.075 11.25H10.125C9.71079 11.25 9.375 11.5858 9.375 12C9.375 12.4142 9.71079 12.75 10.125 12.75H18.125Z" fill="#111111"/>
</svg>
