<svg width="24" height="24" viewBox="0 0 24 24" fill="none" xmlns="http://www.w3.org/2000/svg">
<path d="M11.05 17.95C9.13333 17.95 7.47917 17.2708 6.0875 15.9125C4.69583 14.5542 4 12.9417 4 11.075V4.5C4 4.1 4.15 3.75 4.45 3.45C4.75 3.15 5.1 3 5.5 3H18.725C19.625 3 20.3958 3.30833 21.0375 3.925C21.6792 4.54167 22 5.3 22 6.2C22 7.1 21.6792 7.85833 21.0375 8.475C20.3958 9.09167 19.625 9.4 18.725 9.4H18.1V11.075C18.1 12.9417 17.4042 14.5542 16.0125 15.9125C14.6208 17.2708 12.9667 17.95 11.05 17.95ZM5.5 7.9H16.6V4.5H5.5V7.9ZM11.05 16.45C12.5667 16.45 13.8708 15.9208 14.9625 14.8625C16.0542 13.8042 16.6 12.5417 16.6 11.075V9.4H5.5V11.075C5.5 12.5417 6.04583 13.8042 7.1375 14.8625C8.22917 15.9208 9.53333 16.45 11.05 16.45ZM18.1 7.9H18.725C19.2083 7.9 19.625 7.7375 19.975 7.4125C20.325 7.0875 20.5 6.68333 20.5 6.2C20.5 5.71667 20.325 5.3125 19.975 4.9875C19.625 4.6625 19.2083 4.5 18.725 4.5H18.1V7.9ZM4.75 21C4.33579 21 4 20.6642 4 20.25C4 19.8358 4.33579 19.5 4.75 19.5H19.1C19.5142 19.5 19.85 19.8358 19.85 20.25C19.85 20.6642 19.5142 21 19.1 21H4.75Z" fill="#111111"/>
</svg>
