<svg width="24" height="24" viewBox="0 0 24 24" fill="none" xmlns="http://www.w3.org/2000/svg">
<path d="M18.6598 5.34234C17.7942 4.47673 16.6433 4 15.419 4C14.1948 4 13.0439 4.47673 12.1783 5.34234C11.3352 6.18543 11.0387 6.8979 10.7771 7.5265C10.5662 8.03331 10.3841 8.471 9.92653 8.92852C9.46901 9.38605 9.03128 9.5682 8.52448 9.77916C7.89584 10.0408 7.18334 10.3373 6.34022 11.1804C4.55326 12.9674 4.55326 15.875 6.34022 17.6619C7.20583 18.5276 8.35677 19.0043 9.58097 19.0043C10.8052 19.0043 11.9561 18.5276 12.8217 17.662C13.6649 16.8188 13.9614 16.1063 14.223 15.4777C14.4339 14.9708 14.6161 14.5331 15.0736 14.0756C15.5311 13.6181 15.9689 13.4359 16.4756 13.225C17.1042 12.9634 17.8167 12.6669 18.6598 11.8239C20.4467 10.0369 20.4467 7.12931 18.6598 5.34234ZM17.75 7.00256C17.4506 7.60143 16.9592 8.27527 16.3486 8.92899C16.1625 8.69925 15.9605 8.47468 15.744 8.25819C15.5275 8.04166 15.3029 7.83965 15.0732 7.65359C15.7269 7.04293 16.4007 6.55157 16.9996 6.25213C17.6921 5.90585 17.9762 5.97138 18.0035 5.99863C18.0308 6.02586 18.0963 6.30998 17.75 7.00256ZM13.0845 15.7516C13.0582 15.753 13.0313 15.7539 13.0037 15.7539C12.574 15.7538 11.9941 15.5793 11.3641 15.2176C11.8652 14.676 12.181 14.2597 12.4671 13.8824C12.707 13.5661 12.937 13.263 13.2558 12.9141L14.1073 13.7657C13.737 14.2303 13.549 14.6816 13.3661 15.121C13.2803 15.3272 13.1934 15.5359 13.0845 15.7516ZM9.9123 14.0898C9.68881 13.8664 9.48933 13.6401 9.31219 13.415C9.86852 12.8905 10.2802 12.5782 10.6805 12.2746C11.0253 12.0131 11.3555 11.7624 11.745 11.4033L12.5988 12.2572C12.2398 12.6467 11.9891 12.9768 11.7276 13.3217C11.4241 13.7219 11.1117 14.1336 10.5872 14.69C10.362 14.5129 10.1357 14.3132 9.9123 14.0898ZM11.9154 7.25287C12.3521 7.22889 12.9656 7.40103 13.6362 7.78628C13.135 8.32804 12.8191 8.74442 12.533 9.12169C12.2931 9.43805 12.063 9.74117 11.7442 10.0901L10.8927 9.23857C11.2631 8.77393 11.4511 8.32251 11.634 7.88311C11.7197 7.67704 11.8067 7.46844 11.9154 7.25287ZM12.4012 10.7471C12.7603 10.3576 13.011 10.0274 13.2725 9.68248C13.576 9.28225 13.8883 8.87064 14.4128 8.31434C14.6379 8.49148 14.8642 8.69096 15.0877 8.91445C15.3111 9.1379 15.5106 9.36421 15.6877 9.58936C15.1315 10.1138 14.7199 10.4261 14.3196 10.7296C13.9748 10.9911 13.6446 11.2418 13.255 11.6009L12.4012 10.7471ZM15.419 4.9281C15.9537 4.9281 16.4708 5.04241 16.9427 5.259C16.1016 5.59643 15.1402 6.30089 14.3041 7.10382C14.0629 6.95343 13.8194 6.82152 13.5763 6.7107C13.1996 6.5391 12.8374 6.42401 12.498 6.36585C12.5975 6.24675 12.7086 6.12455 12.8345 5.99863C13.5249 5.30828 14.4428 4.9281 15.419 4.9281ZM8.88109 10.636C9.32045 10.4531 9.77181 10.2651 10.2364 9.8948L11.088 10.7464C10.7391 11.0651 10.436 11.2952 10.1196 11.5351C9.74233 11.8212 9.32589 12.1371 8.78413 12.6384C8.39884 11.9677 8.22674 11.3542 8.25069 10.9175C8.46632 10.8087 8.67499 10.7218 8.88109 10.636ZM6.99648 11.8367C7.1224 11.7108 7.2446 11.5997 7.3637 11.5002C7.42186 11.8396 7.53695 12.2018 7.70855 12.5784C7.81934 12.8216 7.95128 13.0651 8.10167 13.3063C7.29942 14.1417 6.59548 15.1022 6.25775 15.9428C5.64195 14.5941 5.88805 12.9451 6.99648 11.8367ZM7.24998 16.0017C7.54942 15.4029 8.04078 14.729 8.65144 14.0753C8.83753 14.305 9.03954 14.5296 9.25604 14.7461C9.47253 14.9626 9.6971 15.1646 9.92684 15.3507C9.27312 15.9614 8.59928 16.4527 8.00041 16.7521C7.3078 17.0984 7.02374 17.0329 6.99648 17.0056C6.96923 16.9784 6.90367 16.6943 7.24998 16.0017ZM9.58097 18.0762C9.04604 18.0762 8.52875 17.9618 8.05672 17.745C8.89804 17.4077 9.85946 16.7035 10.6957 15.9004C10.9357 16.0501 11.178 16.1814 11.4199 16.2919C11.7978 16.4644 12.1613 16.5802 12.5018 16.6386C12.4024 16.7577 12.2913 16.8798 12.1654 17.0057C11.4751 17.696 10.5572 18.0762 9.58097 18.0762ZM16.119 12.3682C15.6796 12.551 15.2282 12.7391 14.7636 13.1095L13.912 12.2579C14.261 11.9391 14.5641 11.709 14.8804 11.4691C15.2576 11.1831 15.674 10.8673 16.2156 10.3661C16.6008 11.0368 16.773 11.6504 16.7492 12.0868C16.5336 12.1955 16.3251 12.2824 16.119 12.3682ZM18.0035 11.1676C17.8776 11.2935 17.7554 11.4046 17.6363 11.504C17.5779 11.1635 17.4622 10.7999 17.2896 10.422C17.1792 10.1801 17.0479 9.9379 16.8983 9.69795C17.7005 8.8626 18.4045 7.90214 18.7422 7.0615C19.358 8.41018 19.1119 10.0592 18.0035 11.1676Z" fill="#111111"/>
</svg>
