<svg width="126" height="21" viewBox="0 0 126 21" fill="none" xmlns="http://www.w3.org/2000/svg">
<path d="M14.75 7.38155C13.5717 5.9713 12.1753 5.28754 10.4297 5.28754C9.68785 5.28754 8.98962 5.41574 8.33504 5.67215C7.68046 5.92856 7.15678 6.31318 6.67675 6.78326C6.19673 7.25335 5.84761 7.8089 5.58578 8.40719C5.32395 9.09095 5.19303 9.77471 5.19303 10.5012C5.19303 11.2704 5.32395 11.9542 5.58578 12.5952C5.84761 13.2363 6.19673 13.7918 6.67675 14.2619C7.15678 14.732 7.68046 15.1166 8.33504 15.373C8.94598 15.6294 9.6442 15.7576 10.3861 15.7576C12.0007 15.7576 13.4408 15.0739 14.7063 13.7491V19.561L14.2263 19.7747C13.4408 20.0311 12.7426 20.2448 12.088 20.373C11.4334 20.5012 10.7788 20.5439 10.1242 20.5439C8.77143 20.5439 7.50589 20.2875 6.284 19.8174C5.06211 19.3046 3.97115 18.6209 3.05473 17.7234C2.13831 16.826 1.39644 15.7576 0.829134 14.5183C0.261828 13.279 0 11.9542 0 10.5012C0 9.04822 0.261828 7.72343 0.829134 6.48412C1.39644 5.28754 2.13831 4.21916 3.05473 3.36446C3.97115 2.46702 5.06211 1.78326 6.284 1.31318C7.50589 0.843091 8.77143 0.543945 10.1242 0.543945C10.9097 0.543945 11.6516 0.629415 12.3935 0.800356C13.1353 0.971296 13.9208 1.18497 14.75 1.52685V7.38155Z" fill="white"/>
<path d="M23.2596 10.5439C23.2596 9.13369 23.5215 7.8089 24.0451 6.61232C24.5688 5.41574 25.3107 4.34736 26.2707 3.44993C27.2308 2.55249 28.3218 1.826 29.6309 1.31318C30.9401 0.800356 32.3802 0.543945 33.9512 0.543945C35.5222 0.543945 36.9623 0.800356 38.2714 1.31318C39.5806 1.826 40.7152 2.55249 41.6753 3.44993C42.6353 4.34736 43.3772 5.41574 43.9008 6.61232C44.4245 7.8089 44.6863 9.13369 44.6863 10.5439C44.6863 11.9542 44.4245 13.279 43.9008 14.4756C43.3335 15.6722 42.5917 16.7405 41.6753 17.638C40.7588 18.5354 39.5806 19.2619 38.2714 19.7747C36.9623 20.2875 35.5222 20.5439 33.9512 20.5439C32.3802 20.5439 30.9401 20.2875 29.6309 19.7747C28.3218 19.2619 27.1872 18.5354 26.2707 17.638C25.3543 16.7405 24.6125 15.6722 24.0451 14.4756C23.5215 13.2363 23.2596 11.9542 23.2596 10.5439ZM28.54 10.5439C28.54 11.3132 28.6709 11.9969 28.9763 12.638C29.2818 13.279 29.6746 13.8345 30.1546 14.3046C30.6346 14.7747 31.2456 15.1166 31.9001 15.373C32.5547 15.6294 33.253 15.7576 33.9948 15.7576C34.7367 15.7576 35.4349 15.6294 36.0895 15.373C36.7441 15.1166 37.3114 14.732 37.835 14.3046C38.3587 13.8345 38.7514 13.279 39.0133 12.638C39.3188 11.9969 39.4497 11.3132 39.4497 10.5439C39.4497 9.77471 39.3188 9.09095 39.0133 8.44993C38.7078 7.8089 38.3151 7.25335 37.835 6.78326C37.3114 6.31318 36.7441 5.9713 36.0895 5.67215C35.4349 5.41574 34.7367 5.28754 33.9948 5.28754C33.253 5.28754 32.5547 5.41574 31.9001 5.67215C31.2456 5.92856 30.6783 6.31318 30.1546 6.78326C29.6746 7.25335 29.2818 7.8089 28.9763 8.44993C28.6709 9.09095 28.54 9.77471 28.54 10.5439Z" fill="white"/>
<path d="M64.8475 5.24468H58.7817V8.40707H64.2802V12.5951H58.7817V20.031H53.7632V1.05664H64.8475V5.24468Z" fill="white"/>
<path d="M84.8778 5.24468H78.812V8.40707H84.3105V12.5951H78.812V20.031H73.7935V1.05664H84.8778V5.24468Z" fill="white"/>
<path d="M104.777 5.24468H98.7986V8.40707H104.428V12.5951H98.7986V15.843H104.777V20.031H93.7802V1.05664H104.777V5.24468Z" fill="white"/>
<path d="M125.331 5.24468H119.352V8.40707H124.982V12.5951H119.352V15.843H125.331V20.031H114.334V1.05664H125.331V5.24468Z" fill="white"/>
</svg>
