<svg width="56" height="24" viewBox="0 0 56 24" fill="none" xmlns="http://www.w3.org/2000/svg">
<path d="M22.592 24C16.8096 24 11.3679 21.8492 7.12953 17.8656C2.60357 13.6093 0 7.59609 0 1.37835H5.29795C5.29795 6.21016 7.23549 10.6936 10.7548 14.0032C14.2742 17.3127 18.8683 18.9637 23.7121 18.6683C32.2494 18.1382 39.3486 11.0344 39.8784 2.49164L40.0449 0H46.955C51.5491 0 55.2803 3.73367 55.2803 8.3307C55.2803 12.9277 51.5491 16.6614 46.955 16.6614H39.2881C35.4584 20.8419 30.0772 23.5835 24.0527 23.9546C23.5607 23.9849 23.0764 24 22.592 24ZM42.9058 11.3601H46.9474C48.6201 11.3601 49.9748 10.0044 49.9748 8.3307C49.9748 6.65699 48.6201 5.30136 46.9474 5.30136H44.8812C44.5104 7.43705 43.8368 9.47428 42.9058 11.3601Z" fill="white"/>
</svg>
