<svg width="143" height="24" viewBox="0 0 143 24" fill="none" xmlns="http://www.w3.org/2000/svg">
<path d="M17.6482 8.23362C16.2862 6.56426 14.5937 5.73362 12.5869 5.73362C11.7004 5.73362 10.8864 5.89491 10.1369 6.21749C9.38738 6.54007 8.73457 6.97555 8.1946 7.52394C7.65462 8.08039 7.22748 8.73362 6.91316 9.49975C6.59885 10.2659 6.44572 11.0885 6.44572 11.9675C6.44572 12.8707 6.59885 13.7014 6.91316 14.4675C7.22748 15.2336 7.65462 15.8949 8.21072 16.4594C8.75875 17.0239 9.41156 17.4675 10.153 17.782C10.8945 18.0965 11.7004 18.2659 12.5628 18.2659C14.4486 18.2659 16.1492 17.4594 17.6482 15.8546V22.8465L17.0437 23.0562C16.1411 23.3788 15.2949 23.6127 14.5131 23.7659C13.7314 23.9191 12.9577 23.9917 12.192 23.9917C10.6285 23.9917 9.12948 23.6933 7.69492 23.1046C6.26036 22.5159 4.99504 21.6772 3.89897 20.6046C2.80291 19.532 1.92444 18.2578 1.26357 16.782C0.610767 15.2981 0.280334 13.6852 0.280334 11.9352C0.280334 10.1852 0.602708 8.58846 1.25551 7.12878C1.90832 5.6691 2.77873 4.4191 3.8748 3.36265C4.97087 2.3062 6.23618 1.48362 7.68686 0.894908C9.12948 0.306198 10.6446 0.0078125 12.2323 0.0078125C13.135 0.0078125 14.0215 0.104585 14.9 0.290069C15.7704 0.483618 16.6891 0.773939 17.6563 1.17717V8.23362H17.6482Z" fill="white"/>
<path d="M24.6034 12C24.6034 10.3145 24.9177 8.74193 25.5383 7.28226C26.1589 5.82258 27.0212 4.55645 28.1254 3.46774C29.2295 2.3871 30.5512 1.53226 32.0825 0.919354C33.6218 0.306451 35.3062 0 37.1518 0C38.9813 0 40.6657 0.306451 42.2131 0.919354C43.7605 1.53226 45.0902 2.37903 46.2024 3.46774C47.3146 4.54839 48.185 5.82258 48.8056 7.28226C49.4262 8.74193 49.7405 10.3065 49.7405 12C49.7405 13.6935 49.4262 15.2581 48.8056 16.7177C48.185 18.1774 47.3146 19.4435 46.2024 20.5323C45.0902 21.6129 43.7605 22.4677 42.2131 23.0806C40.6657 23.6935 38.9813 24 37.1518 24C35.3062 24 33.6138 23.6935 32.0825 23.0806C30.5512 22.4677 29.2295 21.621 28.1254 20.5323C27.0212 19.4516 26.1589 18.1774 25.5383 16.7177C24.9177 15.2581 24.6034 13.6855 24.6034 12ZM30.7769 12C30.7769 12.9032 30.9461 13.7339 31.2927 14.5C31.6312 15.2661 32.0986 15.9274 32.6789 16.4919C33.2591 17.0564 33.9361 17.4919 34.7098 17.7984C35.4835 18.1129 36.2975 18.2661 37.1599 18.2661C38.0222 18.2661 38.8443 18.1129 39.6099 17.7984C40.3836 17.4839 41.0606 17.0484 41.657 16.4919C42.2453 15.9274 42.7127 15.2661 43.0593 14.5C43.3978 13.7339 43.5751 12.9032 43.5751 12C43.5751 11.0968 43.4058 10.2661 43.0593 9.5C42.7208 8.73387 42.2534 8.07258 41.657 7.50807C41.0606 6.94355 40.3836 6.50806 39.6099 6.20161C38.8362 5.8871 38.0222 5.73387 37.1599 5.73387C36.2975 5.73387 35.4755 5.8871 34.7098 6.20161C33.9361 6.51613 33.2591 6.95161 32.6789 7.50807C32.0986 8.07258 31.6392 8.73387 31.2927 9.5C30.9461 10.2581 30.7769 11.0968 30.7769 12Z" fill="white"/>
<path d="M63.2882 23.3545H57.3888V0.636719H66.7779C69.3247 0.636719 71.275 1.29801 72.629 2.62866C73.983 3.95124 74.6599 5.8222 74.6599 8.23349C74.6599 10.6448 73.983 12.5077 72.629 13.8383C71.275 15.1609 69.3247 15.8303 66.7779 15.8303H63.2882V23.3545ZM63.2882 11.0641H65.2466C67.4146 11.0641 68.4946 10.1206 68.4946 8.23349C68.4946 6.3464 67.4146 5.40285 65.2466 5.40285H63.2882V11.0641Z" fill="white"/>
<path d="M87.6113 0.636719V23.3464H81.7119V0.636719H87.6113Z" fill="white"/>
<path d="M112.627 8.23337C111.265 6.56401 109.573 5.73337 107.566 5.73337C106.68 5.73337 105.866 5.89466 105.116 6.21724C104.367 6.53982 103.714 6.9753 103.174 7.52369C102.634 8.08014 102.207 8.73337 101.892 9.4995C101.578 10.2656 101.425 11.0882 101.425 11.9672C101.425 12.8705 101.578 13.7011 101.892 14.4672C102.207 15.2334 102.634 15.8947 103.19 16.4592C103.738 17.0237 104.391 17.4672 105.132 17.7818C105.874 18.0963 106.68 18.2656 107.542 18.2656C109.428 18.2656 111.128 17.4592 112.627 15.8543V22.8463L112.023 23.056C111.12 23.3785 110.274 23.6124 109.492 23.7656C108.711 23.9189 107.937 23.9914 107.171 23.9914C105.608 23.9914 104.109 23.693 102.674 23.1043C101.24 22.5156 99.9742 21.6769 98.8782 20.6043C97.7821 19.5318 96.9036 18.2576 96.2428 16.7818C95.5819 15.3059 95.2515 13.693 95.2515 11.943C95.2515 10.193 95.5738 8.59627 96.2266 7.13659C96.8795 5.67691 97.7499 4.42692 98.8459 3.37046C99.942 2.31401 101.207 1.49143 102.658 0.902721C104.101 0.314011 105.616 0.015625 107.203 0.015625C108.106 0.015625 108.993 0.112398 109.871 0.297882C110.741 0.49143 111.66 0.781755 112.627 1.18498V8.23337Z" fill="white"/>
<path d="M127.142 10.0077L134.339 0.636719H141.625L132.615 11.3948L142.455 23.3545H134.807L127.134 13.5077V23.3545H121.235V0.636719H127.134V10.0077H127.142Z" fill="white"/>
</svg>
