<svg width="252" height="108" viewBox="0 0 252 108" fill="none" xmlns="http://www.w3.org/2000/svg">
<g clip-path="url(#clip0_591_1329)">
<path d="M120.615 45.2954C109.702 45.2954 99.4316 41.2361 91.4325 33.7178C82.8906 25.685 77.9769 14.3362 77.9769 2.60138H87.9757C87.9757 11.7205 91.6325 20.1821 98.2746 26.4283C104.917 32.6744 113.587 35.7904 122.729 35.2329C138.841 34.2324 152.24 20.8253 153.24 4.70249L153.554 0H166.595C175.266 0 182.308 7.04659 182.308 15.7226C182.308 24.3986 175.266 31.4452 166.595 31.4452H152.126C144.898 39.3351 134.742 44.5093 123.372 45.2096C122.443 45.2668 121.529 45.2954 120.615 45.2954ZM158.953 21.4399H166.581C169.738 21.4399 172.295 18.8814 172.295 15.7226C172.295 12.5638 169.738 10.0053 166.581 10.0053H162.682C161.982 14.036 160.71 17.8809 158.953 21.4399Z" fill="#6D4937"/>
<path d="M30.7822 80.0852C28.3682 77.1265 25.3686 75.6543 21.8118 75.6543C20.2406 75.6543 18.7979 75.9402 17.4694 76.5119C16.141 77.0837 14.984 77.8555 14.027 78.8274C13.0699 79.8137 12.3129 80.9714 11.7558 82.3293C11.1987 83.6872 10.9273 85.1451 10.9273 86.703C10.9273 88.3039 11.1987 89.7761 11.7558 91.134C12.3129 92.4918 13.0699 93.6639 14.0555 94.6644C15.0269 95.6649 16.1839 96.4511 17.498 97.0085C18.8122 97.5659 20.2406 97.8661 21.769 97.8661C25.1114 97.8661 28.1254 96.4368 30.7822 93.5924V105.985L29.7109 106.356C28.1111 106.928 26.6113 107.343 25.2257 107.614C23.8402 107.886 22.4689 108.014 21.1119 108.014C18.3408 108.014 15.6839 107.485 13.1414 106.442C10.5988 105.399 8.3562 103.912 6.41356 102.011C4.47092 100.11 2.91396 97.8518 1.74266 95.2361C0.585648 92.6062 0 89.7475 0 86.6459C0 83.5442 0.571364 80.7142 1.72838 78.1271C2.88539 75.54 4.42807 73.3245 6.37071 71.4521C8.31334 69.5797 10.5559 68.1218 13.1271 67.0784C15.6839 66.035 18.3693 65.5061 21.1833 65.5061C22.7831 65.5061 24.3544 65.6776 25.9113 66.0064C27.454 66.3494 29.0824 66.864 30.7965 67.5786V80.0852H30.7822Z" fill="#6D4937"/>
<path d="M43.1094 86.7601C43.1094 83.7728 43.6665 80.9856 44.7664 78.3985C45.8662 75.8114 47.3946 73.5674 49.3516 71.6378C51.3085 69.7225 53.6511 68.2074 56.365 67.1211C59.0933 66.0348 62.0787 65.4917 65.3497 65.4917C68.5922 65.4917 71.5776 66.0348 74.3202 67.1211C77.0627 68.2074 79.4196 69.7082 81.3908 71.6378C83.362 73.5531 84.9047 75.8114 86.0045 78.3985C87.1044 80.9856 87.6615 83.7585 87.6615 86.7601C87.6615 89.7617 87.1044 92.5346 86.0045 95.1217C84.9047 97.7088 83.362 99.9528 81.3908 101.882C79.4196 103.798 77.0627 105.313 74.3202 106.399C71.5776 107.485 68.5922 108.029 65.3497 108.029C62.0787 108.029 59.079 107.485 56.365 106.399C53.6511 105.313 51.3085 103.812 49.3516 101.882C47.3946 99.9671 45.8662 97.7088 44.7664 95.1217C43.6665 92.5346 43.1094 89.7474 43.1094 86.7601ZM54.051 86.7601C54.051 88.3609 54.351 89.8332 54.9652 91.191C55.5651 92.5489 56.3936 93.7209 57.4221 94.7215C58.4505 95.722 59.6504 96.4938 61.0217 97.037C62.3929 97.5944 63.8356 97.866 65.364 97.866C66.8924 97.866 68.3494 97.5944 69.7064 97.037C71.0777 96.4795 72.2775 95.7077 73.3346 94.7215C74.3773 93.7209 75.2058 92.5489 75.82 91.191C76.4199 89.8332 76.7342 88.3609 76.7342 86.7601C76.7342 85.1593 76.4342 83.687 75.82 82.3292C75.2201 80.9713 74.3916 79.7993 73.3346 78.7987C72.2775 77.7982 71.0777 77.0264 69.7064 76.4832C68.3351 75.9258 66.8924 75.6542 65.364 75.6542C63.8356 75.6542 62.3787 75.9258 61.0217 76.4832C59.6504 77.0407 58.4505 77.8125 57.4221 78.7987C56.3936 79.7993 55.5794 80.9713 54.9652 82.3292C54.351 83.6727 54.051 85.1593 54.051 86.7601Z" fill="#6D4937"/>
<path d="M111.673 106.885H101.217V66.6208H117.858C122.372 66.6208 125.829 67.7929 128.228 70.1513C130.628 72.4954 131.828 75.8114 131.828 80.0851C131.828 84.3588 130.628 87.6606 128.228 90.0189C125.829 92.363 122.372 93.5494 117.858 93.5494H111.673V106.885ZM111.673 85.1021H115.144C118.987 85.1021 120.901 83.4297 120.901 80.0851C120.901 76.7405 118.987 75.0682 115.144 75.0682H111.673V85.1021Z" fill="#6D4937"/>
<path d="M154.782 66.6208V106.871H144.327V66.6208H154.782Z" fill="#6D4937"/>
<path d="M199.12 80.0851C196.706 77.1264 193.707 75.6542 190.15 75.6542C188.579 75.6542 187.136 75.9401 185.808 76.5118C184.479 77.0835 183.322 77.8554 182.365 78.8273C181.408 79.8135 180.651 80.9713 180.094 82.3292C179.537 83.687 179.265 85.1449 179.265 86.7029C179.265 88.3038 179.537 89.776 180.094 91.1338C180.651 92.4917 181.408 93.6637 182.394 94.6643C183.365 95.6648 184.522 96.4509 185.836 97.0084C187.15 97.5658 188.579 97.866 190.107 97.866C193.449 97.866 196.463 96.4366 199.12 93.5923V105.985L198.049 106.356C196.449 106.928 194.949 107.342 193.564 107.614C192.178 107.886 190.807 108.014 189.45 108.014C186.679 108.014 184.022 107.485 181.479 106.442C178.937 105.399 176.694 103.912 174.752 102.011C172.809 100.11 171.252 97.8517 170.081 95.236C168.909 92.6203 168.324 89.7617 168.324 86.66C168.324 83.5584 168.895 80.7283 170.052 78.1412C171.209 75.5541 172.752 73.3387 174.695 71.4663C176.637 69.5938 178.88 68.1359 181.451 67.0925C184.008 66.0491 186.693 65.5203 189.507 65.5203C191.107 65.5203 192.678 65.6918 194.235 66.0205C195.778 66.3636 197.406 66.8781 199.12 67.5928V80.0851Z" fill="#6D4937"/>
<path d="M224.846 83.2296L237.602 66.6208H250.514L234.545 85.6881L251.986 106.885H238.43L224.832 89.4329V106.885H214.376V66.6208H224.832V83.2296H224.846Z" fill="#6D4937"/>
</g>
<defs>
<clipPath id="clip0_591_1329">
<rect width="252" height="108" fill="white"/>
</clipPath>
</defs>
</svg>
