<svg width="113" height="113" viewBox="0 0 113 113" fill="none" xmlns="http://www.w3.org/2000/svg">
<g clip-path="url(#clip0_591_1323)">
<path d="M107.129 10.2598H11.2094V93.6608H107.129V10.2598Z" fill="#F5E9DF"/>
<path d="M90.0777 49.9744H86.8401C86.2501 53.3127 85.1997 56.4928 83.7463 59.4426H90.0633C92.6822 59.4426 94.7974 57.313 94.7974 54.7085C94.7974 52.104 92.6965 49.9744 90.0777 49.9744Z" fill="#6D4937"/>
<path d="M93.6606 0H19.3538C8.66242 0 0 8.66242 0 19.3538V93.6606C0 104.352 8.66242 113.014 19.3538 113.014H93.6606C104.352 113.014 113.014 104.352 113.014 93.6606V19.3538C113 8.66242 104.338 0 93.6606 0ZM90.0777 67.7309H78.0913C72.0909 74.2781 63.6731 78.5518 54.2481 79.1417C53.4854 79.1849 52.7228 79.2137 51.9745 79.2137C42.938 79.2137 34.4195 75.8466 27.7859 69.6159C20.7064 62.9536 16.6342 53.5574 16.6342 43.8445H24.9224C24.9224 51.399 27.9586 58.4066 33.4554 63.5868C38.9521 68.7526 46.1612 71.3283 53.73 70.8822C67.0834 70.0476 78.192 58.939 79.0266 45.5856L79.2712 41.7005H90.0777C97.258 41.7005 103.1 47.5426 103.1 54.7229C103.1 61.9032 97.258 67.7309 90.0777 67.7309Z" fill="#6D4937"/>
</g>
<defs>
<clipPath id="clip0_591_1323">
<rect width="113" height="113" fill="white"/>
</clipPath>
</defs>
</svg>
