<svg width="294" height="17" viewBox="0 0 294 17" fill="none" xmlns="http://www.w3.org/2000/svg">
<path d="M4.26571 16.5278H0V0.435913H6.78804C8.64269 0.435913 10.0522 0.908135 11.0167 1.85258C11.9811 2.79702 12.5004 4.10472 12.5004 5.81198C12.5004 7.51925 12.0182 8.82694 11.0167 9.77138C10.0151 10.7158 8.64269 11.188 6.78804 11.188H4.26571V16.5278ZM4.26571 7.84617H5.67525C7.23316 7.84617 8.01211 7.19232 8.01211 5.84831C8.01211 4.50429 7.23316 3.85044 5.67525 3.85044H4.26571V7.84617Z" fill="#6D4937"/>
<path d="M24.1105 0.435913V16.5278H19.8077V0.435913H24.1105Z" fill="#6D4937"/>
<path d="M44.4005 5.81197C43.399 4.61325 42.212 4.03205 40.7282 4.03205C40.0977 4.03205 39.5042 4.14103 38.9478 4.35897C38.3914 4.57692 37.9463 4.90385 37.5382 5.30342C37.1673 5.70299 36.8706 6.17521 36.648 6.72009C36.4254 7.26496 36.3142 7.84615 36.3142 8.46368C36.3142 9.11752 36.4254 9.69872 36.648 10.2436C36.8706 10.7885 37.1673 11.2607 37.5753 11.6603C37.9834 12.0598 38.4285 12.3868 38.9849 12.6047C39.5042 12.8226 40.0977 12.9316 40.7282 12.9316C42.1007 12.9316 43.3248 12.3504 44.4005 11.2244V16.1645L43.9553 16.3462C43.2877 16.5641 42.6942 16.7457 42.1378 16.8547C41.5814 16.9637 41.025 17 40.4686 17C39.3187 17 38.243 16.7821 37.2044 16.3825C36.1658 15.9466 35.2385 15.3654 34.4595 14.6026C33.6806 13.8397 33.0129 12.9316 32.5307 11.8782C32.0485 10.8248 31.8259 9.69872 31.8259 8.46368C31.8259 7.22863 32.0485 6.10256 32.5307 5.04915C33.0129 4.03205 33.6435 3.12393 34.4224 2.39744C35.2014 1.63462 36.1287 1.05342 37.1673 0.653846C38.2059 0.254274 39.3187 0 40.4686 0C41.1363 0 41.7669 0.0726496 42.3974 0.217949C43.028 0.363248 43.6957 0.544872 44.4005 0.83547V5.81197Z" fill="#6D4937"/>
<path d="M57.1234 7.08335L62.3164 0.435913H67.5837L61.0553 8.06412L68.1771 16.5278H62.6874L57.1234 9.55344V16.5278H52.8577V0.435913H57.1234V7.08335Z" fill="#6D4937"/>
<path d="M91.5829 8.82687L85.5738 0.472168H90.6926L93.7343 4.86747L96.7759 0.472168H101.895L95.8857 8.82687V16.5641H91.62V8.82687H91.5829Z" fill="#6D4937"/>
<path d="M106.494 8.5C106.494 7.30128 106.717 6.17521 107.162 5.15812C107.607 4.14103 108.238 3.23291 109.054 2.47009C109.87 1.70727 110.797 1.08974 111.91 0.653846C112.986 0.217949 114.21 0 115.582 0C116.917 0 118.142 0.217949 119.254 0.653846C120.367 1.08974 121.332 1.70727 122.148 2.47009C122.964 3.23291 123.594 4.14103 124.039 5.15812C124.484 6.17521 124.707 7.30128 124.707 8.5C124.707 9.69872 124.484 10.8248 124.039 11.8419C123.557 12.859 122.927 13.7671 122.111 14.5299C121.294 15.2927 120.33 15.9103 119.217 16.3462C118.104 16.7821 116.88 17 115.545 17C114.21 17 112.986 16.7821 111.873 16.3462C110.76 15.9103 109.796 15.2927 109.017 14.5299C108.238 13.7671 107.607 12.859 107.125 11.8419C106.717 10.7885 106.494 9.69872 106.494 8.5ZM110.946 8.5C110.946 9.15385 111.057 9.73504 111.316 10.2799C111.576 10.8248 111.91 11.297 112.318 11.6966C112.726 12.0962 113.245 12.3868 113.802 12.6047C114.358 12.8226 114.952 12.9316 115.582 12.9316C116.213 12.9316 116.806 12.8226 117.363 12.6047C117.919 12.3868 118.401 12.0598 118.846 11.6966C119.291 11.297 119.625 10.8248 119.848 10.2799C120.108 9.73504 120.219 9.15385 120.219 8.5C120.219 7.84615 120.108 7.26496 119.848 6.72009C119.588 6.17521 119.254 5.70299 118.846 5.30342C118.401 4.90385 117.919 4.61325 117.363 4.35897C116.806 4.14103 116.213 4.03205 115.582 4.03205C114.952 4.03205 114.358 4.14103 113.802 4.35897C113.245 4.57692 112.763 4.90385 112.318 5.30342C111.91 5.70299 111.576 6.17521 111.316 6.72009C111.057 7.26496 110.946 7.84615 110.946 8.5Z" fill="#6D4937"/>
<path d="M136.688 0.435913V9.19019C136.688 9.66241 136.688 10.1346 136.725 10.6432C136.762 11.1154 136.874 11.5876 137.059 11.9872C137.245 12.3868 137.541 12.7137 137.912 12.968C138.283 13.2222 138.84 13.3312 139.581 13.3312C140.286 13.3312 140.843 13.2222 141.213 12.968C141.584 12.7137 141.881 12.3868 142.067 11.9872C142.252 11.5876 142.363 11.1517 142.4 10.6432C142.438 10.1346 142.438 9.66241 142.438 9.19019V0.435913H146.703V9.77138C146.703 12.2778 146.11 14.094 144.96 15.2564C143.81 16.4188 141.992 17 139.544 17C137.133 17 135.316 16.4188 134.129 15.2564C132.942 14.094 132.422 12.2778 132.422 9.77138V0.435913H136.688Z" fill="#6D4937"/>
<path d="M168.885 16.5278H163.581L159.5 10.3526V16.5641H155.235V0.435913H161.874C162.802 0.435913 163.581 0.581212 164.285 0.835486C164.953 1.08976 165.547 1.45301 165.992 1.92523C166.437 2.39745 166.771 2.906 166.993 3.52352C167.216 4.10472 167.327 4.75856 167.327 5.44873C167.327 6.68378 167.03 7.66455 166.437 8.42737C165.843 9.19019 164.953 9.69874 163.766 9.98933L168.885 16.5278ZM159.5 7.62822H160.316C161.17 7.62822 161.8 7.4466 162.245 7.11967C162.69 6.79275 162.913 6.2842 162.913 5.63036C162.913 4.97651 162.69 4.50429 162.245 4.14104C161.8 3.81412 161.132 3.63249 160.316 3.63249H159.5V7.62822Z" fill="#6D4937"/>
<path d="M200.006 5.81197C199.005 4.61325 197.818 4.03205 196.334 4.03205C195.703 4.03205 195.11 4.14103 194.553 4.35897C193.997 4.57692 193.552 4.90385 193.144 5.30342C192.736 5.70299 192.439 6.17521 192.216 6.68376C191.994 7.26496 191.883 7.84615 191.883 8.46368C191.883 9.11752 191.994 9.69872 192.216 10.2436C192.439 10.7885 192.736 11.2607 193.144 11.6603C193.552 12.0598 193.997 12.3868 194.553 12.6047C195.073 12.8226 195.666 12.9316 196.297 12.9316C197.669 12.9316 198.893 12.3504 199.969 11.2244V16.1645L199.561 16.3462C198.893 16.5641 198.3 16.7457 197.743 16.8547C197.187 16.9637 196.631 17 196.074 17C194.924 17 193.849 16.7821 192.81 16.3825C191.771 15.9466 190.844 15.3654 190.065 14.6026C189.286 13.8397 188.656 12.9316 188.173 11.8782C187.691 10.8248 187.469 9.69872 187.469 8.46368C187.469 7.22863 187.691 6.10256 188.173 5.04915C188.656 4.03205 189.286 3.12393 190.065 2.39744C190.844 1.63462 191.771 1.05342 192.81 0.653846C193.849 0.254274 194.924 0 196.074 0C196.742 0 197.372 0.0726496 198.003 0.217949C198.634 0.363248 199.301 0.544872 200.006 0.83547V5.81197Z" fill="#6D4937"/>
<path d="M207.239 8.5C207.239 7.30128 207.462 6.17521 207.907 5.15812C208.352 4.14103 208.983 3.23291 209.799 2.47009C210.615 1.70727 211.542 1.08974 212.655 0.653846C213.768 0.217949 214.992 0 216.327 0C217.662 0 218.886 0.217949 219.999 0.653846C221.112 1.08974 222.076 1.70727 222.892 2.47009C223.709 3.23291 224.339 4.14103 224.784 5.15812C225.229 6.17521 225.452 7.30128 225.452 8.5C225.452 9.69872 225.229 10.8248 224.784 11.8419C224.302 12.859 223.671 13.7671 222.892 14.5299C222.114 15.2927 221.112 15.9103 219.999 16.3462C218.886 16.7821 217.662 17 216.327 17C214.992 17 213.768 16.7821 212.655 16.3462C211.542 15.9103 210.578 15.2927 209.799 14.5299C209.02 13.7671 208.389 12.859 207.907 11.8419C207.462 10.7885 207.239 9.69872 207.239 8.5ZM211.727 8.5C211.727 9.15385 211.839 9.73504 212.098 10.2799C212.358 10.8248 212.692 11.297 213.1 11.6966C213.508 12.0962 214.027 12.3868 214.584 12.6047C215.14 12.8226 215.734 12.9316 216.364 12.9316C216.995 12.9316 217.588 12.8226 218.145 12.6047C218.701 12.3868 219.183 12.0598 219.628 11.6966C220.073 11.297 220.407 10.8248 220.63 10.2799C220.889 9.73504 221.001 9.15385 221.001 8.5C221.001 7.84615 220.889 7.26496 220.63 6.72009C220.37 6.17521 220.036 5.70299 219.628 5.30342C219.183 4.90385 218.701 4.61325 218.145 4.35897C217.588 4.14103 216.995 4.03205 216.364 4.03205C215.734 4.03205 215.14 4.14103 214.584 4.35897C214.027 4.57692 213.545 4.90385 213.1 5.30342C212.692 5.70299 212.358 6.17521 212.098 6.72009C211.839 7.26496 211.727 7.84615 211.727 8.5Z" fill="#6D4937"/>
<path d="M242.589 3.99574H237.433V6.68378H242.107V10.2436H237.433V16.5641H233.167V0.435913H242.589V3.99574Z" fill="#6D4937"/>
<path d="M259.615 3.99574H254.459V6.68378H259.132V10.2436H254.459V16.5641H250.193V0.435913H259.615V3.99574Z" fill="#6D4937"/>
<path d="M276.529 3.99574H271.447V6.68378H276.232V10.2436H271.447V13.0043H276.529V16.5641H267.182V0.435913H276.529V3.99574Z" fill="#6D4937"/>
<path d="M294 3.99574H288.918V6.68378H293.703V10.2436H288.918V13.0043H294V16.5641H284.652V0.435913H294V3.99574Z" fill="#6D4937"/>
</svg>
