<svg width="346" height="21" viewBox="0 0 346 21" fill="none" xmlns="http://www.w3.org/2000/svg">
<g clip-path="url(#clip0_985_1862)">
<path d="M5.01848 19.9883H0V1.05664H7.98593C10.1679 1.05664 11.8262 1.6122 12.9608 2.72331C14.0954 3.83442 14.7063 5.37288 14.7063 7.38143C14.7063 9.38997 14.139 10.9284 12.9608 12.0395C11.7825 13.1507 10.1679 13.7062 7.98593 13.7062H5.01848V19.9883ZM5.01848 9.77459H6.67676C8.5096 9.77459 9.42601 9.00536 9.42601 7.42416C9.42601 5.84296 8.5096 5.07373 6.67676 5.07373H5.01848V9.77459Z" fill="white"/>
<path d="M28.3653 1.05664V19.9883H23.3032V1.05664H28.3653Z" fill="white"/>
<path d="M52.2359 7.38155C51.0576 5.9713 49.6612 5.28754 47.9156 5.28754C47.1737 5.28754 46.4755 5.41574 45.8209 5.67215C45.1664 5.92856 44.6427 6.31318 44.1627 6.78326C43.7263 7.25335 43.3772 7.8089 43.1153 8.44993C42.8535 9.09095 42.7226 9.77471 42.7226 10.5012C42.7226 11.2704 42.8535 11.9542 43.1153 12.5952C43.3772 13.2363 43.7263 13.7918 44.2063 14.2619C44.6863 14.732 45.21 15.1166 45.8646 15.373C46.4755 15.6294 47.1737 15.7576 47.9156 15.7576C49.5303 15.7576 50.9703 15.0739 52.2359 13.7491V19.561L51.7122 19.7747C50.9267 20.0311 50.2285 20.2448 49.5739 20.373C48.9193 20.5012 48.2647 20.5439 47.6101 20.5439C46.2573 20.5439 44.9918 20.2875 43.7699 19.8174C42.548 19.3046 41.457 18.6209 40.5406 17.7234C39.6242 16.826 38.8387 15.7576 38.2714 14.5183C37.7041 13.279 37.4423 11.9542 37.4423 10.5012C37.4423 9.04822 37.7041 7.72343 38.2714 6.48412C38.8387 5.28754 39.5806 4.21916 40.497 3.36446C41.4134 2.46702 42.5044 1.78326 43.7263 1.31318C44.9482 0.843091 46.2573 0.543945 47.6101 0.543945C48.3956 0.543945 49.1375 0.629415 49.8794 0.800356C50.6212 0.971296 51.4067 1.18497 52.2359 1.52685V7.38155Z" fill="white"/>
<path d="M67.204 8.87715L73.3135 1.05664H79.5102L71.8297 10.031L80.2084 19.9883H73.7499L67.204 11.7831V19.9883H62.1855V1.05664H67.204V8.87715Z" fill="white"/>
<path d="M107.07 10.3847L100 0.555664H106.022L109.601 5.7266L113.179 0.555664H119.201L112.132 10.3847V19.4873H107.113V10.3847H107.07Z" fill="white"/>
<path d="M124.612 10C124.612 8.58974 124.874 7.26496 125.398 6.06838C125.922 4.87179 126.663 3.80342 127.624 2.90598C128.584 2.00855 129.675 1.28205 130.984 0.769231C132.249 0.25641 133.689 0 135.304 0C136.875 0 138.315 0.25641 139.624 0.769231C140.933 1.28205 142.068 2.00855 143.028 2.90598C143.988 3.80342 144.73 4.87179 145.254 6.06838C145.777 7.26496 146.039 8.58974 146.039 10C146.039 11.4103 145.777 12.735 145.254 13.9316C144.686 15.1282 143.944 16.1966 142.984 17.094C142.024 17.9915 140.89 18.7179 139.581 19.2308C138.271 19.7436 136.831 20 135.26 20C133.689 20 132.249 19.7436 130.94 19.2308C129.631 18.7179 128.496 17.9915 127.58 17.094C126.663 16.1966 125.922 15.1282 125.354 13.9316C124.874 12.6923 124.612 11.4103 124.612 10ZM129.849 10C129.849 10.7692 129.98 11.453 130.285 12.094C130.591 12.735 130.984 13.2906 131.464 13.7607C131.944 14.2308 132.555 14.5726 133.209 14.8291C133.864 15.0855 134.562 15.2137 135.304 15.2137C136.046 15.2137 136.744 15.0855 137.399 14.8291C138.053 14.5726 138.621 14.188 139.144 13.7607C139.668 13.2906 140.061 12.735 140.322 12.094C140.628 11.453 140.759 10.7692 140.759 10C140.759 9.23077 140.628 8.54701 140.322 7.90598C140.017 7.26496 139.624 6.7094 139.144 6.23932C138.621 5.76923 138.053 5.42735 137.399 5.12821C136.744 4.8718 136.046 4.74359 135.304 4.74359C134.562 4.74359 133.864 4.8718 133.209 5.12821C132.555 5.38462 131.987 5.76923 131.464 6.23932C130.984 6.7094 130.591 7.26496 130.285 7.90598C129.98 8.54701 129.849 9.23077 129.849 10Z" fill="white"/>
<path d="M160.134 0.512695V10.8118C160.134 11.3674 160.134 11.923 160.178 12.5212C160.222 13.0768 160.353 13.6324 160.571 14.1024C160.789 14.5725 161.138 14.9571 161.575 15.2563C162.011 15.5554 162.666 15.6836 163.538 15.6836C164.367 15.6836 165.022 15.5554 165.458 15.2563C165.895 14.9571 166.244 14.5725 166.462 14.1024C166.68 13.6324 166.811 13.1195 166.855 12.5212C166.898 11.923 166.898 11.3674 166.898 10.8118V0.512695H171.917V11.4956C171.917 14.4443 171.219 16.5811 169.866 17.9486C168.513 19.3161 166.375 19.9999 163.495 19.9999C160.658 19.9999 158.52 19.3161 157.123 17.9486C155.727 16.5811 155.116 14.4443 155.116 11.4956V0.512695H160.134Z" fill="white"/>
<path d="M198.013 19.4443H191.773L186.972 12.1794V19.4871H181.954V0.512695H189.765C190.856 0.512695 191.773 0.683636 192.602 0.982781C193.387 1.28193 194.086 1.70928 194.609 2.26483C195.133 2.82039 195.526 3.41868 195.788 4.14517C196.049 4.82894 196.18 5.59817 196.18 6.41013C196.18 7.86312 195.831 9.01697 195.133 9.91441C194.435 10.8118 193.387 11.4101 191.991 11.752L198.013 19.4443ZM186.972 8.97423H187.933C188.936 8.97423 189.678 8.76056 190.202 8.37594C190.725 7.99133 190.987 7.39304 190.987 6.62381C190.987 5.85458 190.725 5.29902 190.202 4.87167C189.678 4.48705 188.893 4.27338 187.933 4.27338H186.972V8.97423Z" fill="white"/>
</g>
<defs>
<clipPath id="clip0_985_1862">
<rect width="345.882" height="20" fill="white" transform="translate(0 0.543945)"/>
</clipPath>
</defs>
</svg>
