<svg width="30" height="30" viewBox="0 0 30 30" fill="none"
  xmlns="http://www.w3.org/2000/svg">
  <path d="M10 11.8751C9.13706 11.8751 8.4375 12.5747 8.4375 13.4376C8.4375 14.3006 9.13706 15.0001 10 15.0001C10.8629 15.0001 11.5625 14.3006 11.5625 13.4376C11.5625 12.5747 10.8629 11.8751 10 11.8751Z" fill="url(#paint0_linear_203_540)"/>
  <path d="M15 11.8751C14.1371 11.8751 13.4375 12.5747 13.4375 13.4376C13.4375 14.3006 14.1371 15.0001 15 15.0001C15.8629 15.0001 16.5625 14.3006 16.5625 13.4376C16.5625 12.5747 15.8629 11.8751 15 11.8751Z" fill="url(#paint1_linear_203_540)"/>
  <path d="M18.4375 13.4376C18.4375 12.5747 19.1371 11.8751 20 11.8751C20.8629 11.8751 21.5625 12.5747 21.5625 13.4376C21.5625 14.3006 20.8629 15.0001 20 15.0001C19.1371 15.0001 18.4375 14.3006 18.4375 13.4376Z" fill="url(#paint2_linear_203_540)"/>
  <path fill-rule="evenodd" clip-rule="evenodd" d="M20.1259 5.7411C16.7582 5.4539 13.3728 5.43723 10.0024 5.69126L9.76089 5.70946C6.54676 5.95171 4.0625 8.63025 4.0625 11.8535V22.5001C4.0625 22.83 4.23583 23.1355 4.51894 23.3048C4.80204 23.474 5.15326 23.4821 5.4438 23.3259L10.3323 20.6988C10.5597 20.5766 10.8138 20.5126 11.0719 20.5126H22.2925C23.7076 20.5126 24.9203 19.5009 25.174 18.1087C25.6881 15.2871 25.7287 12.3997 25.2941 9.5648L25.1661 8.72939C24.933 7.20845 23.6887 6.04493 22.1556 5.91419L20.1259 5.7411ZM10.1433 7.56095C13.4138 7.31446 16.6987 7.33063 19.9666 7.60932L21.9963 7.78241C22.6667 7.83958 23.2108 8.34838 23.3127 9.01347L23.4408 9.84888C23.8438 12.478 23.8061 15.1559 23.3293 17.7726C23.2381 18.2735 22.8017 18.6376 22.2925 18.6376H11.0719C10.504 18.6376 9.94495 18.7783 9.44469 19.0472L5.9375 20.932V11.8535C5.9375 9.61112 7.66577 7.74769 9.90181 7.57916L10.1433 7.56095Z" fill="url(#paint3_linear_203_540)"/>
  <defs>
    <linearGradient id="paint0_linear_203_540" x1="47.926" y1="20.1484" x2="28.3798" y2="-16.3319" gradientUnits="userSpaceOnUse">
      <stop stop-color="#AF7E51"/>
      <stop offset="1" stop-color="#3E2525"/>
    </linearGradient>
    <linearGradient id="paint1_linear_203_540" x1="47.926" y1="20.1484" x2="28.3798" y2="-16.3319" gradientUnits="userSpaceOnUse">
      <stop stop-color="#AF7E51"/>
      <stop offset="1" stop-color="#3E2525"/>
    </linearGradient>
    <linearGradient id="paint2_linear_203_540" x1="47.926" y1="20.1484" x2="28.3798" y2="-16.3319" gradientUnits="userSpaceOnUse">
      <stop stop-color="#AF7E51"/>
      <stop offset="1" stop-color="#3E2525"/>
    </linearGradient>
    <linearGradient id="paint3_linear_203_540" x1="47.926" y1="20.1484" x2="28.3798" y2="-16.3319" gradientUnits="userSpaceOnUse">
      <stop stop-color="#AF7E51"/>
      <stop offset="1" stop-color="#3E2525"/>
    </linearGradient>
  </defs>
</svg>
