<svg width="30" height="30" viewBox="0 0 30 30" fill="none"
  xmlns="http://www.w3.org/2000/svg">
  <path d="M13.8125 22.4375C11.4167 22.4375 9.34896 21.5885 7.60938 19.8906C5.86979 18.1927 5 16.1771 5 13.8437V5.625C5 5.125 5.1875 4.6875 5.5625 4.3125C5.9375 3.9375 6.375 3.75 6.875 3.75H23.4063C24.5313 3.75 25.4948 4.13542 26.2969 4.90625C27.099 5.67708 27.5 6.625 27.5 7.75C27.5 8.875 27.099 9.82292 26.2969 10.5938C25.4948 11.3646 24.5313 11.75 23.4063 11.75H22.625V13.8437C22.625 16.1771 21.7552 18.1927 20.0156 19.8906C18.276 21.5885 16.2083 22.4375 13.8125 22.4375ZM6.875 9.875H20.75V5.625H6.875V9.875ZM13.8125 20.5625C15.7083 20.5625 17.3385 19.901 18.7031 18.5781C20.0677 17.2552 20.75 15.6771 20.75 13.8437V11.75H6.875V13.8437C6.875 15.6771 7.55729 17.2552 8.92187 18.5781C10.2865 19.901 11.9167 20.5625 13.8125 20.5625ZM22.625 9.875H23.4063C24.0104 9.875 24.5313 9.67187 24.9688 9.26562C25.4063 8.85937 25.625 8.35417 25.625 7.75C25.625 7.14583 25.4063 6.64063 24.9688 6.23438C24.5313 5.82813 24.0104 5.625 23.4063 5.625H22.625V9.875ZM5.9375 26.25C5.41973 26.25 5 25.8303 5 25.3125V25.3125C5 24.7947 5.41973 24.375 5.9375 24.375H23.875C24.3928 24.375 24.8125 24.7947 24.8125 25.3125V25.3125C24.8125 25.8303 24.3928 26.25 23.875 26.25H5.9375Z" fill="url(#paint0_linear_203_541)"/>
  <defs>
    <linearGradient id="paint0_linear_203_541" x1="50.84" y1="22.1213" x2="24.0194" y2="-19.5547" gradientUnits="userSpaceOnUse">
      <stop stop-color="#AF7E51"/>
      <stop offset="1" stop-color="#3E2525"/>
    </linearGradient>
  </defs>
</svg>
