<svg width="30" height="30" viewBox="0 0 30 30" fill="none"
  xmlns="http://www.w3.org/2000/svg">
  <path fill-rule="evenodd" clip-rule="evenodd" d="M16.9471 6.91791C15.8589 5.87372 14.1408 5.87372 13.0526 6.91791L7.26951 12.4671C7.12782 12.603 7.03251 12.7801 6.99709 12.9733C6.30442 16.7506 6.25329 20.6177 6.84585 24.412L6.9865 25.3126H10.7071V17.5484C10.7071 17.0307 11.1268 16.6109 11.6446 16.6109H18.3551C18.8729 16.6109 19.2926 17.0307 19.2926 17.5484V25.3126H23.0132L23.1538 24.412C23.7464 20.6177 23.6952 16.7506 23.0026 12.9733C22.9672 12.7801 22.8719 12.603 22.7302 12.4671L16.9471 6.91791ZM11.7544 5.56501C13.5681 3.82468 16.4316 3.82468 18.2453 5.56501L24.0283 11.1142C24.4541 11.5227 24.7404 12.0548 24.8468 12.6351C25.5775 16.6196 25.6314 20.6988 25.0064 24.7013L24.7804 26.1481C24.687 26.7465 24.1716 27.1876 23.566 27.1876H18.3551C17.8373 27.1876 17.4176 26.7679 17.4176 26.2501V18.4859H12.5821V26.2501C12.5821 26.7679 12.1623 27.1876 11.6446 27.1876H6.43366C5.82806 27.1876 5.3127 26.7465 5.21926 26.1481L4.9933 24.7013C4.36824 20.6988 4.42218 16.6196 5.15284 12.6351C5.25926 12.0548 5.54561 11.5227 5.97132 11.1142L11.7544 5.56501Z" fill="url(#paint0_linear_203_539)"/>
  <defs>
    <linearGradient id="paint0_linear_203_539" x1="47.0942" y1="22.9804" x2="18.7873" y2="-17.07" gradientUnits="userSpaceOnUse">
      <stop stop-color="#AF7E51"/>
      <stop offset="1" stop-color="#3E2525"/>
    </linearGradient>
  </defs>
</svg>
