<svg width="17" height="17" viewBox="0 0 17 17" fill="none" xmlns="http://www.w3.org/2000/svg">
<g clip-path="url(#clip0_289_690)">
<path d="M16.1572 8.67989C16.1572 8.14902 16.1141 7.61528 16.0223 7.09302H8.65613V10.1003H12.8744C12.6994 11.0702 12.1369 11.9282 11.3134 12.4735V14.4248H13.83C15.3078 13.0646 16.1572 11.0559 16.1572 8.67989Z" fill="#4285F4"/>
<path d="M8.65615 16.3101C10.7624 16.3101 12.5387 15.6185 13.8329 14.4248L11.3162 12.4735C10.6161 12.9499 9.71216 13.2196 8.65902 13.2196C6.62163 13.2196 4.89415 11.8451 4.27433 9.99707H1.67737V12.0086C3.00311 14.6458 5.70337 16.3101 8.65615 16.3101V16.3101Z" fill="#34A853"/>
<path d="M4.27151 9.99701C3.94438 9.0271 3.94438 7.97684 4.27151 7.00693V4.99536H1.67742C0.569767 7.20206 0.569767 9.80188 1.67742 12.0086L4.27151 9.99701V9.99701Z" fill="#FBBC04"/>
<path d="M8.65615 3.78148C9.76955 3.76426 10.8456 4.18322 11.652 4.95226L13.8816 2.72261C12.4698 1.39687 10.596 0.667999 8.65615 0.690956C5.70337 0.690956 3.00311 2.3553 1.67737 4.9953L4.27146 7.00687C4.88841 5.156 6.61876 3.78148 8.65615 3.78148V3.78148Z" fill="#EA4335"/>
</g>
<defs>
<clipPath id="clip0_289_690">
<rect width="15.619" height="15.619" fill="white" transform="translate(0.69043 0.69043)"/>
</clipPath>
</defs>
</svg>
