<svg fill="none" height="17" viewBox="0 0 19 17" width="19" xmlns="http://www.w3.org/2000/svg" xmlns:xlink="http://www.w3.org/1999/xlink"><linearGradient id="a"><stop offset="0" stop-color="#e5dd4a"/><stop offset=".02" stop-color="#e5dc47"/><stop offset=".18" stop-color="#e4d83c"/><stop offset=".4" stop-color="#e4d635"/><stop offset="1" stop-color="#e4d533"/></linearGradient><linearGradient id="b" gradientUnits="userSpaceOnUse" x1="2.86006" x2="6.56006" xlink:href="#a" y1="7.99991" y2="7.99991"/><linearGradient id="c" gradientUnits="userSpaceOnUse" x1="5.79994" x2="9.68994" xlink:href="#a" y1="7.99991" y2="7.99991"/><linearGradient id="d" gradientUnits="userSpaceOnUse" x1="9.99004" x2="12.58" xlink:href="#a" y1="8.00001" y2="8.00001"/><linearGradient id="e" gradientUnits="userSpaceOnUse" x1="12.8" x2="16.12" xlink:href="#a" y1="8.01007" y2="8.01007"/><path d="m9.5.22998c-5 0-9 3.19-9 7.12.08397 1.29808.52798 2.54709 1.28221 3.60692.75423 1.0598 1.78885 1.8885 2.98779 2.3931-.19.7-.68 2.55-.78 2.94s.18.48.38.35l3.46-2.35c.55074.111 1.10893.1812 1.67.21 5 0 9-3.18 9-7.11002 0-3.93-4-7.16-9-7.16z" fill="#381e1f"/><path d="m6.12006 5.79991h-2.85c-.122 0-.239.04847-.32527.13473-.08627.08627-.13473.20327-.13473.32527s.04846.23901.13473.32527c.08627.08627.20327.13473.32527.13473h.94v3.15001c0 .43998 1 .43998 1 0v-3.15001h.93c.122-.00265.23795-.05366.32234-.1418s.13031-.2062.12766-.3282-.05366-.23794-.1418-.32234c-.08815-.08439-.2062-.13031-.3282-.12766z" fill="url(#b)"/><path d="m8.31994 6.07991c-.14-.3-.94-.45-1.14 0s-1.07 2.91-1.35 3.54c-.2.45999.67.83999.87.38l.18-.66h1.72s-.06 0 .17.63c.23.62999 1.08.14999.89-.34-.26-.69-1.16-3.2-1.34-3.55zm-1.13 2.42.57-1.64.52 1.64z" fill="url(#c)"/><path d="m12.25 9.25001h-1.25s0-2.43 0-3-1-.57-1 0v3.44s-.06997.52999.38.52999h1.88c.43-.03.43-.96999-.01-.96999z" fill="url(#d)"/><path d="m16.07 9.50007-1.32-1.73s.9-1 1.25-1.31c.2-.2-.43-.84-.64-.64l-1.59 1.6s0-.88 0-1.37-1-.35-1 0v3.83c0 .24003 1 .38003 1 0v-1.22l.28-.23 1.24 1.69003c.21.38 1.03-.27003.78-.62003z" fill="url(#e)"/></svg>